<mxfile host="app.diagrams.net" modified="2023-01-13T04:48:24.950Z" agent="5.0 (Windows NT 10.0; Win64; x64) AppleWebKit/537.36 (KHTML, like Gecko) Chrome/109.0.0.0 Safari/537.36" version="20.8.5" etag="jRMszAxXbPtJnWx4Lt9W" type="github">
  <diagram id="PukNeR6mjBcVdcgfxfXY" name="Page-1">
    <mxGraphModel dx="1035" dy="522" grid="1" gridSize="10" guides="1" tooltips="1" connect="1" arrows="1" fold="1" page="1" pageScale="1" pageWidth="850" pageHeight="1100" math="0" shadow="0">
      <root>
        <mxCell id="0" />
        <mxCell id="1" parent="0" />
        <mxCell id="MCNGLX2NwJ5UWZ7fwUMf-31" style="edgeStyle=orthogonalEdgeStyle;rounded=0;orthogonalLoop=1;jettySize=auto;html=1;exitX=1;exitY=0.5;exitDx=0;exitDy=0;entryX=0;entryY=0.5;entryDx=0;entryDy=0;" edge="1" parent="1" source="MCNGLX2NwJ5UWZ7fwUMf-32" target="MCNGLX2NwJ5UWZ7fwUMf-36">
          <mxGeometry relative="1" as="geometry" />
        </mxCell>
        <mxCell id="MCNGLX2NwJ5UWZ7fwUMf-32" value="Install Metamask" style="rounded=1;whiteSpace=wrap;html=1;absoluteArcSize=1;arcSize=14;strokeWidth=2;" vertex="1" parent="1">
          <mxGeometry x="160" y="400" width="80" height="80" as="geometry" />
        </mxCell>
        <mxCell id="MCNGLX2NwJ5UWZ7fwUMf-33" style="edgeStyle=orthogonalEdgeStyle;rounded=0;orthogonalLoop=1;jettySize=auto;html=1;exitX=1;exitY=0.5;exitDx=0;exitDy=0;exitPerimeter=0;entryX=0;entryY=0.5;entryDx=0;entryDy=0;" edge="1" parent="1" source="MCNGLX2NwJ5UWZ7fwUMf-34" target="MCNGLX2NwJ5UWZ7fwUMf-32">
          <mxGeometry relative="1" as="geometry" />
        </mxCell>
        <mxCell id="MCNGLX2NwJ5UWZ7fwUMf-34" value="Start" style="strokeWidth=2;html=1;shape=mxgraph.flowchart.start_2;whiteSpace=wrap;" vertex="1" parent="1">
          <mxGeometry x="40" y="400" width="80" height="80" as="geometry" />
        </mxCell>
        <mxCell id="MCNGLX2NwJ5UWZ7fwUMf-35" style="edgeStyle=orthogonalEdgeStyle;rounded=0;orthogonalLoop=1;jettySize=auto;html=1;exitX=1;exitY=0.5;exitDx=0;exitDy=0;" edge="1" parent="1" source="MCNGLX2NwJ5UWZ7fwUMf-36" target="MCNGLX2NwJ5UWZ7fwUMf-38">
          <mxGeometry relative="1" as="geometry" />
        </mxCell>
        <mxCell id="MCNGLX2NwJ5UWZ7fwUMf-36" value="Connect to Taiko L1 Testnet Network" style="rounded=1;whiteSpace=wrap;html=1;absoluteArcSize=1;arcSize=14;strokeWidth=2;" vertex="1" parent="1">
          <mxGeometry x="280" y="400" width="80" height="80" as="geometry" />
        </mxCell>
        <mxCell id="MCNGLX2NwJ5UWZ7fwUMf-37" style="edgeStyle=orthogonalEdgeStyle;rounded=0;orthogonalLoop=1;jettySize=auto;html=1;exitX=1;exitY=0.5;exitDx=0;exitDy=0;entryX=0;entryY=0.5;entryDx=0;entryDy=0;" edge="1" parent="1" source="MCNGLX2NwJ5UWZ7fwUMf-38" target="MCNGLX2NwJ5UWZ7fwUMf-40">
          <mxGeometry relative="1" as="geometry" />
        </mxCell>
        <mxCell id="MCNGLX2NwJ5UWZ7fwUMf-38" value="&lt;div&gt;&lt;div&gt;&lt;/div&gt;&lt;/div&gt;&lt;div class=&quot;m-0 flex h-auto w-full flex-grow-0 flex-col justify-center align-middle leading-6 text-blueGray-700&quot;&gt;&lt;div class=&quot;flex items-center&quot;&gt;&lt;div class=&quot;overflow-ellipsis whitespace-pre-line&quot; style=&quot;word-break: break-word;&quot;&gt;Get some Token from Faucet&lt;/div&gt;&lt;/div&gt;&lt;/div&gt;" style="rounded=1;whiteSpace=wrap;html=1;absoluteArcSize=1;arcSize=14;strokeWidth=2;" vertex="1" parent="1">
          <mxGeometry x="400" y="400" width="80" height="80" as="geometry" />
        </mxCell>
        <mxCell id="MCNGLX2NwJ5UWZ7fwUMf-39" style="edgeStyle=orthogonalEdgeStyle;rounded=0;orthogonalLoop=1;jettySize=auto;html=1;exitX=1;exitY=0.5;exitDx=0;exitDy=0;entryX=0;entryY=0.5;entryDx=0;entryDy=0;" edge="1" parent="1" source="MCNGLX2NwJ5UWZ7fwUMf-40" target="MCNGLX2NwJ5UWZ7fwUMf-42">
          <mxGeometry relative="1" as="geometry" />
        </mxCell>
        <mxCell id="MCNGLX2NwJ5UWZ7fwUMf-40" value="Bridge TaikoETH L1 to TaikoETH L2" style="rounded=1;whiteSpace=wrap;html=1;absoluteArcSize=1;arcSize=14;strokeWidth=2;" vertex="1" parent="1">
          <mxGeometry x="520" y="400" width="80" height="80" as="geometry" />
        </mxCell>
        <mxCell id="MCNGLX2NwJ5UWZ7fwUMf-41" style="edgeStyle=orthogonalEdgeStyle;rounded=0;orthogonalLoop=1;jettySize=auto;html=1;exitX=1;exitY=0.5;exitDx=0;exitDy=0;entryX=0;entryY=0.5;entryDx=0;entryDy=0;" edge="1" parent="1" source="MCNGLX2NwJ5UWZ7fwUMf-42" target="MCNGLX2NwJ5UWZ7fwUMf-52">
          <mxGeometry relative="1" as="geometry" />
        </mxCell>
        <mxCell id="MCNGLX2NwJ5UWZ7fwUMf-42" value="&lt;font style=&quot;font-size: 11px;&quot;&gt;Open the Remix IDE after successfully bridging L1 to L2&lt;/font&gt;" style="rounded=1;whiteSpace=wrap;html=1;absoluteArcSize=1;arcSize=14;strokeWidth=2;" vertex="1" parent="1">
          <mxGeometry x="640" y="400" width="80" height="80" as="geometry" />
        </mxCell>
        <mxCell id="MCNGLX2NwJ5UWZ7fwUMf-43" style="edgeStyle=orthogonalEdgeStyle;rounded=0;orthogonalLoop=1;jettySize=auto;html=1;exitX=0;exitY=0.5;exitDx=0;exitDy=0;entryX=1;entryY=0.5;entryDx=0;entryDy=0;" edge="1" parent="1" source="MCNGLX2NwJ5UWZ7fwUMf-44" target="MCNGLX2NwJ5UWZ7fwUMf-46">
          <mxGeometry relative="1" as="geometry" />
        </mxCell>
        <mxCell id="MCNGLX2NwJ5UWZ7fwUMf-44" value="&lt;font style=&quot;font-size: 12px;&quot;&gt;Create Smart Contract&lt;/font&gt;" style="rounded=1;whiteSpace=wrap;html=1;absoluteArcSize=1;arcSize=14;strokeWidth=2;" vertex="1" parent="1">
          <mxGeometry x="760" y="520" width="80" height="80" as="geometry" />
        </mxCell>
        <mxCell id="MCNGLX2NwJ5UWZ7fwUMf-45" style="edgeStyle=orthogonalEdgeStyle;rounded=0;orthogonalLoop=1;jettySize=auto;html=1;exitX=0;exitY=0.5;exitDx=0;exitDy=0;entryX=1;entryY=0.5;entryDx=0;entryDy=0;fontSize=11;" edge="1" parent="1" source="MCNGLX2NwJ5UWZ7fwUMf-46" target="MCNGLX2NwJ5UWZ7fwUMf-49">
          <mxGeometry relative="1" as="geometry" />
        </mxCell>
        <mxCell id="MCNGLX2NwJ5UWZ7fwUMf-46" value="&lt;font style=&quot;font-size: 12px;&quot;&gt;Deploy&lt;/font&gt;" style="rounded=1;whiteSpace=wrap;html=1;absoluteArcSize=1;arcSize=14;strokeWidth=2;" vertex="1" parent="1">
          <mxGeometry x="640" y="520" width="80" height="80" as="geometry" />
        </mxCell>
        <mxCell id="MCNGLX2NwJ5UWZ7fwUMf-47" value="End" style="strokeWidth=2;html=1;shape=mxgraph.flowchart.start_2;whiteSpace=wrap;" vertex="1" parent="1">
          <mxGeometry x="400" y="520" width="80" height="80" as="geometry" />
        </mxCell>
        <mxCell id="MCNGLX2NwJ5UWZ7fwUMf-48" style="edgeStyle=orthogonalEdgeStyle;rounded=0;orthogonalLoop=1;jettySize=auto;html=1;exitX=0;exitY=0.5;exitDx=0;exitDy=0;entryX=1;entryY=0.5;entryDx=0;entryDy=0;entryPerimeter=0;fontSize=11;" edge="1" parent="1" source="MCNGLX2NwJ5UWZ7fwUMf-49" target="MCNGLX2NwJ5UWZ7fwUMf-47">
          <mxGeometry relative="1" as="geometry" />
        </mxCell>
        <mxCell id="MCNGLX2NwJ5UWZ7fwUMf-49" value="&lt;font style=&quot;font-size: 12px;&quot;&gt;Minted the token&lt;/font&gt;" style="rounded=1;whiteSpace=wrap;html=1;absoluteArcSize=1;arcSize=14;strokeWidth=2;" vertex="1" parent="1">
          <mxGeometry x="520" y="520" width="80" height="80" as="geometry" />
        </mxCell>
        <mxCell id="MCNGLX2NwJ5UWZ7fwUMf-51" style="edgeStyle=orthogonalEdgeStyle;rounded=0;orthogonalLoop=1;jettySize=auto;html=1;exitX=0.5;exitY=1;exitDx=0;exitDy=0;entryX=0.5;entryY=0;entryDx=0;entryDy=0;" edge="1" parent="1" source="MCNGLX2NwJ5UWZ7fwUMf-52" target="MCNGLX2NwJ5UWZ7fwUMf-44">
          <mxGeometry relative="1" as="geometry" />
        </mxCell>
        <mxCell id="MCNGLX2NwJ5UWZ7fwUMf-52" value="Connect to Taiko L2 Testnet Network" style="rounded=1;whiteSpace=wrap;html=1;absoluteArcSize=1;arcSize=14;strokeWidth=2;" vertex="1" parent="1">
          <mxGeometry x="760" y="400" width="80" height="80" as="geometry" />
        </mxCell>
        <mxCell id="MCNGLX2NwJ5UWZ7fwUMf-53" value="" style="shape=image;verticalLabelPosition=bottom;labelBackgroundColor=default;verticalAlign=top;aspect=fixed;imageAspect=0;image=data:image/jpeg,/9j/4AAQSkZJRgABAQAAAQABAAD/4gKgSUNDX1BST0ZJTEUAAQEAAAKQbGNtcwQwAABtbnRyUkdCIFhZWiAAAAAAAAAAAAAAAABhY3NwQVBQTAAAAAAAAAAAAAAAAAAAAAAAAAAAAAAAAAAA9tYAAQAAAADTLWxjbXMAAAAAAAAAAAAAAAAAAAAAAAAAAAAAAAAAAAAAAAAAAAAAAAAAAAAAAAAAAAAAAAtkZXNjAAABCAAAADhjcHJ0AAABQAAAAE53dHB0AAABkAAAABRjaGFkAAABpAAAACxyWFlaAAAB0AAAABRiWFlaAAAB5AAAABRnWFlaAAAB+AAAABRyVFJDAAACDAAAACBnVFJDAAACLAAAACBiVFJDAAACTAAAACBjaHJtAAACbAAAACRtbHVjAAAAAAAAAAEAAAAMZW5VUwAAABwAAAAcAHMAUgBHAEIAIABiAHUAaQBsAHQALQBpAG4AAG1sdWMAAAAAAAAAAQAAAAxlblVTAAAAMgAAABwATgBvACAAYwBvAHAAeQByAGkAZwBoAHQALAAgAHUAcwBlACAAZgByAGUAZQBsAHkAAAAAWFlaIAAAAAAAAPbWAAEAAAAA0y1zZjMyAAAAAAABDEoAAAXj///zKgAAB5sAAP2H///7ov///aMAAAPYAADAlFhZWiAAAAAAAABvlAAAOO4AAAOQWFlaIAAAAAAAACSdAAAPgwAAtr5YWVogAAAAAAAAYqUAALeQAAAY3nBhcmEAAAAAAAMAAAACZmYAAPKnAAANWQAAE9AAAApbcGFyYQAAAAAAAwAAAAJmZgAA8qcAAA1ZAAAT0AAACltwYXJhAAAAAAADAAAAAmZmAADypwAADVkAABPQAAAKW2Nocm0AAAAAAAMAAAAAo9cAAFR7AABMzQAAmZoAACZmAAAPXP/bAEMABQMEBAQDBQQEBAUFBQYHDAgHBwcHDwsLCQwRDxISEQ8RERMWHBcTFBoVEREYIRgaHR0fHx8TFyIkIh4kHB4fHv/bAEMBBQUFBwYHDggIDh4UERQeHh4eHh4eHh4eHh4eHh4eHh4eHh4eHh4eHh4eHh4eHh4eHh4eHh4eHh4eHh4eHh4eHv/CABEIAZABkAMBIgACEQEDEQH/xAAbAAEAAgMBAQAAAAAAAAAAAAAABgcBBAUDAv/EABsBAQACAwEBAAAAAAAAAAAAAAAEBQIDBgEH/9oADAMBAAIQAxAAAAG5QAAAAAAAAAAAAAAAAAAAAAAAAAAAAAAAAAAAAAAAAAAAAAAAAAAAAAAAAAAAAAAAAAAAAAAAAAAAAAAAAAAAAAAHMZbemMdQAAAAAAAAAAAAAAAAAAAAAGOb0q53zok+F/8AQrk6Vc2NQfPcjRBAAAAAAAAAAAAAAAAAAAAA06Zm0EuOzPtOvvq5qUncGhngp+MAAAAAAAAAAAAAAAAAAAAx5esO2SIJqs9F9Iliaqjjad2dfFt2V4+sOmPPfN8jXHAAAAAAAAAAAAAAAAAAA+Kcn9X2vWJHHLY32HfFHwdVxy2KnvO86Nx0XaGivk4quTAAAAAAAAAAAAAAAAAAwzwctkB4h0X0ns27F5RS8RkRanFRW7F5VtWPa4q67e9nC73O/Ngx1gAAAAAAAAAAAAAAAAYq6fU7Y9Jjf0LDn30x+zn/AJ6A+PsUvoWHXl/9Ckto0VcUGh6grubAAAAAAAAAAAAAAAAwafvsEiHp59D9I2bnp3txaezlYodPZysRZysRY9MSDiTLjRl8Q9JVxeTT3Oe+b5HngAAAAAAAAAAAAAAGK4kNYWXTYFr1p2OjpgxZKHmMXSgRdKBF0p53uXHG6dMLGoq0arkpKK3mQAAAAAAAAAAAAAMaO5VUiw5Os9L3v/NOYNhH7ls0VZsGilQq+VAA+akmNaWvViczbyDbXj55yLp3aqtSh4D6GivAAAAAAAAAAAAMcbLPgwD7+L/6GsWO2lCo1S25xYlRUW9pYvO8vH1gc85/51kaouPH2gW2VE9J9dB9F7dscjs0fBQuvL1quXcx6wq99Jt1eeOR1+f+e5HmAAAAAAAAAAAHhUXciFx2Lb1bT3T+vtlFwGR55WkTuqm7rtsXFTEoe2eKXiOdTsjjF13CXRi5PMNwU3FY09x77SeradW3v0Dp29Rsx0V9jCo44AAAAAAAAADEa7FPzLrXw6tz2nesPz9Of+eZGqIAg0489kmjc7/P6H6NbOK+xXczysOjY9LL5v5/fPfOsjXGAxXVi+W6XR2eny7/AOh2lJKUt+m4rdEOmAAAAAAAAxjMJ2SY/HzoPofpbsGkFfzsuzBdWLU2JisdXORbGKa1dki6dWm8bJE3hBNvA2y05gzVDuXbo/MKkvTNH7euPcyptrXGs/Fe7WvRIaksSPS7eMSGPLDob1zC5rz/AM7DXHAAAAAAA5dP21UVt1wWPSj28x8W/t4aOKku7rjw1PtrCPW609vXHqH7ujZ1x6WXWw00Z8Xpq57qVW9p7JNWrI1NkiBJjpbN8bdnVzkaD18s9we5+lw03btdzXZFTyIAAAAAAGOL28e58Db6rPZr+30w0h54AAAAAAAAAB8+Gy995WnIWW7i9kx15HmAAAAAAAAAAAAAAAAAAAAAAAAAAAAAAAAAAAAAAAAAAAAAAAAAAAAAAAAAAAAAAAAAAAAAAAAAAAAAAAAAAAAAAAAAAAAAAAAAAAAAAAAAAAAAAAAAAAAAAAAAAAAAAAAAAAAAAAAAAAAAAAAAAAAAAAAAH//EACgQAAEEAQIGAwEAAwAAAAAAAAQAAQIDBQYQExQVIEBQERIhMDGAkP/aAAgBAQABBQL/AF2JNGGcY0Yl/X5EhhRLJSnOuUoTxxDFCeu1MT979tMk/S/1pdsaB7ZvZZtVN67BbY3j+s1OTtCLznOLwmtME+stnGusu57yVpobiE6lG4ZKFtegiqcbK/VamJ+lCZvl8WMwoeUGYoN/x1pkn70epd/hskQ5JiwA3HN2z43ANWNIcYxn+W9RqIngh7YQXlgts2LzIW2nSeMH6jMk8ycsONzJvZmBuWNWGJ5Y70+aJ5YLbTo3BE7NRDcYTbCk8yF6bUBPHMWPockuLfWPZJmk2QHcYtafK4BnpcmSwobu7utMjfSnu1MN96Uzuz4whig/SalK4hCGqleRTXGuruurjZUTVKghaaK4ZHoy7ojj2zeyxBkzFt66auumrrpq66auumrrpq66auumo0mZVqqm9dgl0SB/RahO41n9tOncKfoc6dy1O4WOuLh0IxdDMXQzF0MxdDMXQzF0MxdCMRuPuDhvgzuao880iAw5N0yL98MXypbf47n/ABswXzZe4t0x7w74E0ea7/DZo5yyFXCVlh+JarG7aeM44/dqEzgj7BYlrMZZCVc1hDuVvZ/zzNRH/WO2ngeFB1mROULQJEhSapxsr7LrI1VmkSKJWFE5otlqEDiQ206d94eXlTGDHnKU5rBg81e22XEYsV2dnWmi+3Upf6mZ3fEiMIKn/VmweVvVc5VzxZcTB/JusjVXki5GEoQeZN4lEB6N9RB8K9VTlXYCREkbY8iIotk5WWLTgfFu3LoiSOXRMe9YwuQhNc42Q8jUB3FsTfr4QFhaOwyiJI99cqbVp8zgEbagM45KoqldcJREcfszgPNUbaeP4c/Hzp3LUbaeB+8u7UofzHbDF82Jmi+VF200J9Yd2oQeHPbCHc1R4phEBRyrpkXrFhyMJrhGuHdOLThkBpClLFFuIVlS3LKWOGkUVCLQj3WwjZXkxJCEoS+Y14ZECaPDd/hs0dzZCrhKyzGiRDG7flPdUykcJFZ28EmnswV4I1EThJJrapd+TEiYPZCVc1hDuVvbw9QnfWO2FuCFT54ZPqCKfP2p84YpZc91I0uTvZY/8422RUTTIqOXPZNnDE2ftTagio54V1mrQit9PHfeHg5IjlhJylOf9YxlJRGIkpDERUoyj/aucq7McRzIngZmiRAHY1VjqIZUlHFnyUMIc6hgLnUdPxUMCMyhhQWUMYDBVjDwTRi27xi6mKNNTxYM1PCgup4EZ1PT7KeAvZTwp0VLFnRUgyoqVVkexv18RTKgDwScYGRJsOAyjjwmUaq4r4bx/hlOmqaljwpKWHAdC40QeX/JP//EADYRAAEDAgQCBwYGAwEAAAAAAAECAwQABRETMUEGEhAUFTBAQoEhMlFSkaEgIiREcbEWYHDh/9oACAEDAQE/Af8AV8hzk5+U4eIt0XrMgI2rkGHLtVxi9WkFG3h7BFy2s06muYY8tX+LmNZo1HhokcyHktjekpDacBtXah7QzfLp6UtKXE4Hepccx3lNnbwvD0TBJfP8Cr1KyI5A1V7Oiyys+OAdU+yuIYmKQ+P4PhGWi6sITvTDKWWw2NqvMvrEggaD2dFml9XkAHQ+yn2UvNls7080ppZQrbwfD0TmWXztpVzldWjlW+34LZK6zHCt964hicqg+N9fBJSVHlFQo4jMpbFXiFJlrAQPyiuwZfwrsGX8K7Bl/CrPCkxFkLH5TU2OJLKmzSklJ5T4GxW7mPWF+nQu4xm1cqlYGu1Ynz12rE+eu1Ynz03cYziuVKsT0X238p6wj18BbYJlu4bDWgEtJw0AqJMblJJRV/hfuE+v4LBCwHWFelS5rcUAr3ohLqMDoauUExHeXY6d802p1YQnU1AhpiNBAq+3H9uj1q1Teqv+3Q60tCXUFJ0NTYpivFs9EKKZTwbFIQlpASNBV1m9af8AZoNKsVxx/TuelT4aZbRQfSnW1NKKFajvbHbspOcvU1c5wiNY+Y6UpRUcT0WObnNZatR/VXuFns5idU9FkhZDOYrU1fJuS1lJ1P8AXQlRScRVsnCW1juNavluzU56NR3lmt/WXOdfuinXUsoK1aCpstUp0rPTDkqjOhwU2tLqAoaGuxf12n5Nf/KdcS0grVoKlyVSXS4emDLVEdCxTTqXkBadDV5t/VnOdHunuokZcl0NpqOwiO2G07VeDJkrym0nlH3pNlmHy0nh+UdcKTw255l0OG07rqHFEVvLBxHRMiCU3lk4UeG07LpXDbnlXSuH5Q+FKssweSrOZMZWU6k8pqRHRIbLat6lRlRnS2rueHUt5aiPe6CtI1NKmMJ1WPrSrtETqulX2IN/tSuIo40BpXEnyo+9f5I5j7lJ4k+ZH3pPEUc6g0m+xDvSbrEVouky2FaLH1oLSdD0cRpby0nzdy26to4oOFKlPq1WfrRUT3gURpSZb6dFn6046t04rOP/ABv/xAAuEQABAwMBBwMEAgMAAAAAAAABAAIDBBESEwUQFCExQVEwQGEVIEJxIiNDYHD/2gAIAQIBAT8B/wBXwda9vcU8eo8BWFrKoi03ke3oIsW5eVdV8WTcvHtomajw1AYiy4r+/LsiMhZSs03lvtdnxWGZVZLgz97qOXUZ+lXxXGY9oxuTrBMaGNxCrJc5P1uo5cJP2ntD24lPbi7E+z2fFc5lVMunGT9lNLqRgraEVjmPZAX5KGPTYAquGSU8ui4GVcDKuBlVJDJEefRTR6jCERbl7Gip/wAzuM8bTYlcTF5XExeVxMXlNnjcbA7q2nt/Mewp4TK74XJoUUzZRcKvh/MfZQQ/mVLM2IXK5OCqIdJ1u3rNaXGwUEQibYKtqPwCpZtJ/wAIgOFipojE/HdDEZH4oANFgqqbUf8ACoaj/GVPCJW2TmlpsfVoqfAZnqqmfSb8om/PdRTZsxPUKthzZcdRuoodNlz1KrZsG4jqdwNuYVNPqt+VW0+QzHX1KOn1HXPROcGNuVNKZXZHfDIY35BNcHNuFwf93wnODG3KlkMjsjvhlMTrprg8XCq6fTdcdPSijMjsQo2BjcQqvUkOLRyQo5j2QoJENnO7lDZw7lRRaTcRumi1W4lHZw7FHZzuxXASI0cw7KkMkZwcOSkYHtxKljMbsT6Ozw3EnvuuEZWDqUaqId0a2LyvqEfhHaPgL6i7whtEdwhtCPwhWxeUKmI90JWHoVcbtoBuIPf0WuLeYRleepV/UuUJXjoU5xd1/wCN/wD/xAA3EAACAAMDCAkEAgIDAAAAAAABAgADMRARIQQgIjJBYXGBEhMUI0BCUJGSMDNRoWKCNLGAkNH/2gAIAQEABj8C/wCO102aAfxF0qaCfx6g83bs4wXc3k1MB0NxFISbt28fTxk60TE8bTk7UfFePpzzmoohpjVY3m1Zi1U3iEmrRh6auSqf5NYEWpwgo1RhY+Ssf5L6YztQC+HnHzGwz2GEunGBPWkyvGxJq+UwrrQi/wBLGTqcXrwsuEJL21bjDy9tV4xcbDk7HFKcPSrzDzdnl4WdMjQl429MDQmY87Em7PNwi8ek9Wp0pmFq3676TWm7XTSW3q21peHL0liNVdFbFXyrpNmsvlbSWxSdVtFvSGI1m0Vt61taZjyzetXWl48rVJ1l0W9H6tToSsOdiShS/HhFwzSDDyjS/DhZ1bHQmYc/Rnm7aDjF5rY2UMMXwXhnjKFGKYNwsvFRCTdtDx9FGTqcErxsSUtWMKi0UXZ7I1GF0PKaqmw5O1Hpx9Eea1FEM7VY32dZLClt8Ule0UlfGKSvjFJXxikr4xSV8YpK+MUle0dZMChv42K61U3wk1aMPQ+zS9RTpbz9fssw6LHR4+hdWh7x/wBZnSlNL5mKyveKyveKyveKyveKyveKyveKyveKyveA01peJ2HM6DnvUrv9Aaa+yGmvU5g6X22wb6JI1FwXMWalRCzUofHXx0VPdJTfYstBexMAyxfNl4tvt6lzpy/2M/qU15n6FpMwXTXxXdBRxcwwNnQc909d3juyyjidci3tMwabau4WG77bYrYs5dlRugOuIIzWmPgFGMNObbSwX/bTFrO1SxpLrD8i3ss1tIam/wAZ0vOcFEF2N5NTZ1jjuk/dpUa4xWLjWw5I53pmjJEO97LhiTATzHFremg7p6brA6G4jEQHow1h4ozHNyisGYdXyj8CxZSbf1CykoMztCakyu42K6VU3ws1dtbWmtspvguxvY4mztLjRTV45jSnoYaVMGIsEzynWEB0N6mniezSzoLrbzZcI6bDvXruzXkvQw0p6qbOpY6Ez/dvVKdCX/uxZSVY3QspKLm9NB3qU329lmnRbV3eI6uWe9f9W9qmrojU/wDc8ZUgxGD2i/XXBo0fuPgtpypxi2C8M/tUsaLa12y3oOe9Su/wzTX2Q016mwJ5BrGAii4DPKMLwYaUaeXhYG8hwaC/kGC2LKFPMfwICqLgM8o4vBgp5fKbFnJUQs1KHwl5joqe6Sm+wIgvY0gINbzHPxmL7xjlEv3ju5wM1KYVzdOeomtXCNHKJZ5xhMU888p5hqmCji5hUWdBz3T13Rf4Psko4nXtM6fM7zYOicIwlzTyjDJz8owkJ7xh1Y5R9+7+ojHKZvyjGYx5/T0ZjjgYwymb8r4+9f8A1EYiWeUYyF94xyc/KMZc0coE+RM7zaOjW3ss06Q1d/gnm7RSC7G9jX62ipPARhImfGMZMz4xpKRx+sHQ3MuMJO2mvgXRMWqM3CW55Rhk8z2j/HPMiMQi8WjTnoOAvjSyg8ljSmOYxRm4tGGTrzxjQky14LFBbiojTkS24rGOTrywjBWXg0aMyYI0MoPNY0JyNxwjAI3Axjk55GMcnme0Yy2HLMwiWj61T4LpvLub8iPtX/2MYZNK5rGiijlFPD0i5paniIxyaXyEfau/sY6aS72/J/6lP//EACwQAQABAQYEBgMBAQEAAAAAAAERABAhMUFRYXGBkdEgQFChsfHB4fAwgJD/2gAIAQEAAT8h/wCdjj/xPQp5y/PR9QeMQIOqwpVLpTOlUOlGVDCJEHQY+ny2+VYe3zbLb4Rj7fHpyohI403Es5lqcQTkU6eI4bem3WMfosOSXAarR6QqjRLNoP2emIlDk1iay8DIsvbLrifqobRdcD9WY/0vEzKQKTB4+l3HTzwv3YghKsFQFwyarGoC4ZNBhQUCEubLxp5nq/fpROkBfSOZlGwYWR0q97uXflbPQrntm787AcxKNyxoiSRJ9JV4F32M+3O26H+ALbp/4EtU0nr8nbl6Qt1Okn2zF62M8fEGXOi4i1vEpzjONnLlY6SPfMHrQ3ejz5jrjnWdl2nxsnfw3efOzd7Z8z1wz9HncgN83aw/L0noMaECgCDwmVIkNE5clvWFkTE6LJ29GQGAh1VI2lMrZdq9Afvx3zicx+7CbQkjQgyQ6DH0W8Iv+N+vmww1g8DNoEoADxglKEUaaJOJk2SGi/4X97eiZ5Q4tJFLFZd+yCKx719n719m719m719m719m719m719m719n71c+yGCT72JFBBWeUOfoco2afxh/uFyJz00c/Qrj0V23Wm9ltRxwwiCe1fbe1ffe1ffe1ffe1ffe1ffe1ffe1fbe1YYcAyvtaKMlzWQYjY19AfO7AZrkU8cvPDbwT1ezaPKkITxoRbgp0vv+/PwOnC4amlL/ADkuI6eeJkwGNYgRG9rY/CCArEtTOv8AtrVvRdT0H8eNp6Lpep2tx0Hnp/t6Y62BysQ7wRua0CEwfO5Ba8YGluW5ufxe0BEc6UZ/mSxzMUamYp1yWHwoReirOt3NDIsWJ9y0KEAFMl2vzHK0cCN5cGnLzjW68UNOjfKZtl4KW/dpQAgsgexXfSmQIGEbPfM9z89fDPgGIHofnpYTNRAGdIaG+d7ABG8rOwTuaWJZfIZULIuWg+aC0WU5VJGC6yC7vV7kM2gDg+vguovMP8X2K1BBT/4LmjmWxj3LmrIqYcVN7JCQsBz/AE8Bx3PRqDouOSZNgqVutYo/pZRn5mevxe9jlYEAlcCsBon8VhaVFzjo5NCZERswtN0ydcLcSzRxzdrC8mIotriOL4Q1cbGlIjDclkDeK+5tOfmLmMEGzWm9lsjb43ExfG2JE0ybBRkYSpx8/wB+dT8vYN6VWW9s3Qh93jlb3XRi152CjIwlFEoo2NfLNHcLjVyKVOX6bWXgC80DSgNDgDLxngGiOdbzpa5LGa5LtryqTzgu2vOw3HPQBUHAHjFYOEaVMrv1ixDb3DUzKSu5w0dPKAiQFNiYje1sfa2AUc0q/XfDO9Q1Kwm8RT0EeGiSsYUwzJ8LDGOaIMiYpmEOGnI4QKk1K5+F6AX2k0llsJlY2OCNzWkJDDyc/ce8ZGnO0FRdxpDpE0eegu9e000y84qmzD+O9SXsdimzeNEfFOy05raVcVf8RTBSkpQ1Up2eYXypYnhvYokdQd6u83gqy/1ikB0k/mnNCOiHTG2OuPfcmnLyUeglAdXCndJlOb/t8uZV2s5qZg3NSEI7I/2YaiCVJxA3NzyJGQQWsZUiKJCYngLkjZtDSw46MkHgPloGdi7A0Vee52VEvzwKE9zCgeoH4rHn/WdeyoFYIXKoNKg0rFByq/UthrClz/CvdWPzXygjWTXMojox7qEnZe7FFyngPw0VJOegJL3Z4AgBVwCjYiEGk5eSZyTFYmiL3xdygfZDR8DaBKgwHSoNPKwaUpiOlAQvQWhIHwShLnwdyh8NwWY/8lP/2gAMAwEAAgADAAAAEPPPPPPPPPPPPPPPPPPPPPPPPPPPPPPPPPPPPPPPPPPPPPPPPPPPPPPPPPPPPPPPPPPPPPPPPPPPPPPPPPPPPPPPDvPPPPPPPPPPPPPPPPPPPPPPLMXPPPPPPPPPPPPPPPPPPPPPPLzn/PPPPPPPPPPPPPPPPPPPPO3MGnfPPPPPPPPPPPPPPPPPPPNDvDvPPPPPPPPPPPPPPPPPPPJCxvCt2PPPPPPPPPPPPPPPPPPPdYPNu/fPPPPPPPPPPPPPPPPPGgQgggZPPPPPPPPPPPPPPPPPIfO/PPI/EPPPPPPPPPPPPPPPLf1SvPPFCY1vPPPPPPPPPPPPDdrUCnfKSmXwXvPPPPPPPPPPPKU9PND8NofJUivPPPPPPPPPPJ3PvPGzLDRvPMYc/PPPPPPPPKI66UsJ8vUbuD0zsEfPPPPPPPNfOPu9d0sg9NPc/fBPPPPPPPPN0dHPPPPPPPPPLOF3/PPPPPPPPPPPPPPPPPPPPPPPPPPPPPPPPPPPPPPPPPPPPPPPPPPPPPPPPPPPPPPPPPPPPPPPPPPPPPPPPPPPPPPPPPPPPPPPPPPPPPPPPPPPPPPPPPPPPPPPPPPPPPPPPPPPPPPPPPPPPPPPPPPPPPPPPPP/xAAqEQEAAAQFAwUAAgMAAAAAAAABABEhMUFRcYHBYZHREDBAsfCh4SBgcP/aAAgBAwEBPxD/AFf+cMmXe3yGaMzoebbxh2SWEoaVZjR8W2+PPRydDy8RiVby6RLxzdHw8/GxsFehi9oKlIEjQjGfwr3rCEpgk6MYkCnUwe3xZRavYxeNom6lScvb79Jup1nD2+olFqdjB703+Jc+QEWnQH7WJicNri9/r0mJlXcPf7YtOhP2kXHEj8OQGlGpu7H3BHNVNT4vCzZvoMqkE80U1Hm8SG0o1Fnc+vhExmrI1YwSCvVxe8DykYspreOi7x0XeOi7wPKRgzkloxSCnRwe8MxkjJ1PgygaFnXPbDr6ODhcY6OOjjo4EHSwek8GjZ1z3x6/ALvOXTLVgKJA2Ah87KeHRKkTwGtuDw7f4TwatNGLwbwjdweXQxh9UDZGE91ZdMtT3hhmkiKxTdc39aJArXFxy9oYlYXB2+oKGYSeoxYlLOY2fS1I1XILsBDIJHQIRlYXJ3iWmVLumXiKZDdZP68DTJJJ7tB6VOh5fqHoyBzoQnea1Xr6V+w9cDtZ2imGNqYnJ6UYx9DA5Yrxx4u9u/ofeSMx6kD3SkOuejFBaVTM8n17iyKr3ctrsPxIJsW+7BkYeuCbczMSHTmEzRgVX4eX8QjEgm7RjG2MjA9atZZMz9aG4mEyKNcLlye1io3cjFgwZA/OrEzNcZILeVDtGR9U8xhZqvAw2waC+Ix66AcsGlhacqTwJBTH0ZLCzpKssGZbGH3TUHkgth1E8xa5tHyEZm0TzEl1YZKDtgwQMz8mdSL0JZzME9nOUk5ylTa8TIBnIixzUeYtbtX6nFnbouZRfN2OeIHy/wBIySWr+/iBeH+kWzdnniL2zUeBi2u9PuUXWaDzAE5kDOJg4pGcpV2nL2ZxqzGUX2bvMJTWfuJTUotM3eYmGrNZ/wDG/wD/xAArEQABAwIDCAICAwAAAAAAAAABABExIUEQcdEwQFFhgZGx4aHBIPBgcPH/2gAIAQIBAT8Q/i9/Nxam8P7EnJWiia2JGW7uJz4JjtdMIz4bscBdACEBOm4OiEUoKKQturheoPtOYE0D7wYQZo0TRaofrdCCmKGYAnICKNcGIGKNEcQFENINzdbVB9piJgZp3whOBMHNMl6h+tyMQCSgAbeboPDWc7rK7rK7rI7ovDXc7oRG/lEIlI3F4t5a4HgIIXKrlVyqDASTg8bpfXcG3ZKAZigCMLJZOgZR1/BkEU0GqALpZEMzUFH45G2GxuSgma/Mpqvnom15UOqO6gKIC6ZYCQdckN0AE7kQoNU4HctEYlNs0ZjYja0FqjkPaFTlCIRKThXjQX60DD9SBZfuwMCGJAhP2SqG0TzHraUDo+SjgzAI56GWIVY8ICiKutx+kQRBHdzxiNjF8kImcFUjq+Dw2Q3/AIIOhCN92fJ0XsIRckDqrBV69kJwJHPADgQOSuXsgIURwQeq9hCeTd8FF0JRPY2LSXVytgRSoJHUKQHz4QcO6FEUEUH2qpHuvaUVJBFyzoVCD48qAT1CBIweC742Jd0g8lLPdEjO0AoKlnuUXc3PP+m//8QAKxABAAEDAwQBBQACAwEAAAAAAREAITFBYYEQUXGRoSBAULHRMPCAweGQ/9oACAEBAAE/EP8AiJpatL/kRrFIZj7siG7Q1iSuY+5Apufj3MNKxd09oPd3YXSl6XZlTQ9btwopXrIXtB7ubI0Zg/GzUjqUJiCzhTTJeixapHQoHEFnImk/jVFDvYloeVgN2lNJp7qayVgp7SKO6ko9yO1mWq3GR3PxsKmUGOlwvIsbG3RHJZEqICkMvkQohOkohKTXSQJyjG7v+LS1GXaJsAStJiyiPg4ADjoAAK7iLPEuUdKABBZxFnmHIutOZp2kEw8HIKc0bcomRBI/NBa34lzmpTbBN5scw9O/RsgwGVcFewDFx6YNgr2AQuPbDstPwWg5EydJbbsLzY4l7NqDf8SYwal7FKNWNpYA85d1rWo3okpbR8P6NaAAKQRKjOmAFtDy/o0rWlGjG0sA+Mm4UZwYJqP4mRp1BJ1fJ1CNDkIsp8BHM9YqrjIuh8hPIdZCukrfUcH4ciopOAqTC4TCL2MuI7dJXbyxaS3JB4ntQDBYLdSIEiXqB29laS/JJ4h16TYXAzAL2EOJ70SEwlH6/CuacHFkuBfgS+qbyazWHbkUJDHm/I7fQ0t1qxAlMeLcN6xQoyWacGFkuhbkQ+6M/hd6WXAW0bPi3Bdejr2Ei1wnixuhrRSRgLAGCp+gCDwOEbJTZyVxa4RxZ3E6WkCOcFnzfkdqIz+FQYb1dgHDd2GnFtIyrdeiSkbmRIXaQ+p1KcVp9GSlgskMqQO8I97PR1ZAMiYaSQHc+wHu5sn4NKmFtRQIbeEJDiHOzoTwUwnuGwSuxQPzC0Aiua5rmua5rmgfqlqJDUxwSkdg2SE2ehagnwBKbSfINamXFB+Bd6Y8EgXYA3WDmlbotZus9GTy2MLmAF6Mh9dyZMmTJk3I1cEclhAYmVe9NI3TIxcZKY8QoHGCO4icUfgWIvRyHOHBaG3yfH+SeuV5jhsraHvzRj8DOnOHN8LtdDe+lJRFVlXXrNst9ESSCsmH+NXY+venTp06dN2K3FQTdKJUEWNXc79QTIMiZGnAyJMaB56O/n8BEgPfeDdf7pSH7GmQ6DYLdNOiMIoO5+R8TUaaJIn1vGAlVtFIUmQ7BvzX8RWsdbt9lNmytkqEOr2BZR3H+lqJfvSrCVLEFMkCDG2o/Om3noSNRl1WoAoUrhi2dAJDstW/Sw8wpv8AtDLwOv1iooQZ1Xl/7PbqMkRngFjGiKp+xZP0QoUUEVYpSVe2H9O3imyEJEwn3clTaidoZvD4n3ddvPTFKJy48pq/6RHdo2hBDOtRRZVMAvtH4TonpLys1k4ubg6UP8xmZEmpdOs0FFRmgE0giMGgdg8Htl1opUe0jiD7F+B2oDAAQRQI2KWQwN/08dRUidLI5k66Dt4ompzb7rLdJfI7GX1rS2i5hMvSNSCzwdzeau1taFmAEAaUYoSBfhp1bJb06Uh9QEImTpZnGWZpkPmH0GKVGjuZqscQeg1IBLpwUHVjpl6Gxg8TrWlDWIQiWikRQzV1Xx1NvFYojh0rorCUPZ3fDk/8oMT9ykk7VgUhjk3/AElyv8Okxe+cDLsHvFAog5i61Xdb0dEtUHFggWhumwJ8z0ZK6TRGaIRgFudk8PxDr1WSUDuXBz8C6U6pMG6mXoFsGC0eb5gz5jtQW6JapJkKdQuJuNYVhDLw7Jf4b9E5UFbd/wAmR41aIkFuQOv3CwK0+RGbYNG37eK1pYCgAlV0oUJA6XOh8a93wVF6EcdZ6VnqC4biDTcXzdtfCX56Y3EC413j5IoRBpQFqTkPIxrvB+i69EDjiad3wEvFB8Ay1yK7rLz1WMzaovmlwI2EO8v9m/mmZKIRyPRmSSqsuXto380Ik/bMxagjB0LfG7XQ38UlUVWVdemlkLEeYdjTe+lERb6daZXQIl2dzwsL2TQtmibkSIwjRI8QOoLHYfM0UUuH3Jd7B8pSFFGVcrRarIpMK5K48pHg7N/pyU2IxEC4j21Pfz0JuRIjCNTFgSwOIj8O/mpx9rpgd50jdaui3ibHQbBboTbKc4W7g5dKGO0ywMFE/SUWprJAkI0aTFzYbLyYdx6PMY59pPyV/EmtRlJJ+A8JV3g06GwTjYDPLg3SjYAEgAICn6WeaSSwyREvWb96cbuYf/a1qGndSs2TZKkFyFZ1luNvs+KLACVWApJdwBtgX+jbzWtFHGVdWgjb+PngwH9a16TXFI7KRz7inYVMgn90jNsj/apztAYmgI3LxJv9GnaldJtQWoAxlvEu00VYMB/ajCLsp+GjT91SaCuKnpJR22tbxYns4TnQpjkyYUdBkw4PjDto7eKHqKJE1p11+yNAJi8+J99W3nprRi2e9mZyPNjy0WHtLI8/xRhHuoj2BTZOwqoq2gcXKUs6N0tvCyrvgoN9IKfZGKH20tKG701o6tiovPR+XO4xQUKwkPTRmcMBHpJS4IOzPoNPwszamh7G1hTTEO+CfQhUckMqI9S+KYSEOysZYQ83PF8Z6Dqo/ce7vo28V+vsYO0KWWiW38p06Wrpn/M5DvZP0pKV/wCmlTxv+mlS5TRV80+P8o4G5YSomYkcDQxtJJs/YqbGDluYbpMbxSJkQhCPb6AyVhM+CiyZhiqBo3D0FSt/dT8Chr2kR7aG4Wh8rUET7/8AQKj27/wKAib3fvay/ub/AOigvWAo7T1T2nqgo8kGmN2lvaVm73ftlE/6o3UL7X9gpBddr9EqeMdv1lJ67ZvwpFVdk/SVCld5v1SQUykfJ9CxmgEq9ipnuu+KZbhA7z9ikl61CTd7kLLuk0cIbX/qChwiMKHtFoudYEHooNY0Ow9VB2+zg7U9h6rLPzRam5APsp4SdVfZDSYXdZx7VCQyOfhNh3CaiD7GLZq5rUVFX+6i+ais1pn/AOMP/9k=;" vertex="1" parent="1">
          <mxGeometry x="160" y="520" width="80" height="80" as="geometry" />
        </mxCell>
      </root>
    </mxGraphModel>
  </diagram>
</mxfile>
